<?xml version="1.0" standalone="no"?>
<!DOCTYPE svg PUBLIC "-//W3C//DTD SVG 20010904//EN"
 "http://www.w3.org/TR/2001/REC-SVG-20010904/DTD/svg10.dtd">
<svg version="1.0" xmlns="http://www.w3.org/2000/svg"
 width="260.000000pt" height="260.000000pt" viewBox="0 0 260.000000 260.000000"
 preserveAspectRatio="xMidYMid meet">
<metadata>
Created by potrace 1.14, written by Peter Selinger 2001-2017
</metadata>
<g transform="translate(0.000000,260.000000) scale(0.100000,-0.100000)"
fill="#000000" stroke="none">
<path d="M7 2443 c-4 -3 -7 -11 -7 -17 0 -6 5 -5 12 2 6 6 9 14 7 17 -3 3 -9
2 -12 -2z"/>
<path d="M26 2434 c-3 -9 -4 -20 -1 -25 4 -5 0 -6 -8 -3 -11 4 -14 -8 -13 -65
1 -42 6 -74 14 -81 9 -7 9 -7 2 2 -14 17 -12 31 3 21 6 -4 17 -8 22 -8 6 -1 9
-6 7 -13 -1 -7 3 -12 9 -12 6 0 9 7 6 15 -7 17 7 28 46 32 17 2 26 -1 22 -7
-4 -6 1 -7 11 -3 14 5 16 3 11 -11 -4 -9 -3 -15 2 -11 15 9 8 45 -7 42 -8 -1
-16 6 -17 15 -3 16 -1 16 20 2 20 -13 23 -13 28 1 4 8 3 23 0 33 -7 16 -6 16
11 -1 20 -20 38 -14 29 10 -5 12 -3 14 8 8 11 -6 12 -5 2 5 -10 11 -9 18 5 34
9 11 11 16 5 12 -9 -5 -13 -1 -13 11 -1 17 -1 17 -11 0 -5 -9 -8 -21 -5 -25 3
-5 -1 -9 -7 -9 -7 0 -14 9 -14 19 -1 10 2 16 8 13 5 -4 9 -1 9 4 0 6 -7 11
-15 11 -8 0 -15 -6 -15 -12 0 -9 -4 -8 -10 2 -8 13 -10 13 -10 -2 0 -9 5 -18
12 -20 7 -3 5 -7 -6 -11 -9 -4 -15 -3 -11 3 3 5 -3 8 -14 7 -12 -1 -17 -7 -14
-17 4 -12 1 -11 -10 3 -22 26 -32 20 -13 -8 14 -21 14 -24 1 -19 -8 4 -15 12
-15 20 0 13 -13 19 -33 15 -5 -1 -5 4 -1 10 5 9 2 10 -11 5 -15 -5 -16 -4 -5
9 7 8 8 15 2 15 -5 0 -13 -7 -16 -16z m19 -44 c-3 -5 -12 -10 -18 -10 -7 0 -6
4 3 10 19 12 23 12 15 0z m125 -16 c-6 -6 -8 -13 -5 -16 3 -2 -2 -5 -10 -5
-12 0 -12 3 -2 16 10 12 9 14 -6 8 -10 -4 -16 -3 -12 2 3 6 14 9 25 8 13 -1
16 -5 10 -13z m40 6 c0 -5 -2 -10 -4 -10 -3 0 -8 5 -11 10 -3 6 -1 10 4 10 6
0 11 -4 11 -10z m-159 -57 c13 -16 12 -17 -3 -4 -10 7 -18 15 -18 17 0 8 8 3
21 -13z m-21 -23 c0 -5 7 -7 15 -4 8 4 15 4 15 1 0 -13 -30 -14 -40 -1 -9 10
-9 14 -1 14 6 0 11 -4 11 -10z"/>
<path d="M64 2440 c2 -16 20 -14 24 2 3 10 2 10 -6 -1 -7 -9 -11 -10 -15 -2
-4 7 -5 8 -3 1z"/>
<path d="M105 2440 c-3 -5 -1 -10 4 -10 6 0 11 5 11 10 0 6 -2 10 -4 10 -3 0
-8 -4 -11 -10z"/>
<path d="M135 2440 c-3 -5 -1 -10 4 -10 6 0 11 5 11 10 0 6 -2 10 -4 10 -3 0
-8 -4 -11 -10z"/>
<path d="M350 2440 c0 -5 5 -12 10 -15 6 -3 10 -12 10 -18 0 -7 -4 -6 -10 3
-7 11 -10 11 -10 2 0 -7 -6 -10 -12 -7 -7 4 -5 0 5 -8 9 -8 17 -17 17 -20 0
-4 -8 -4 -17 -1 -14 5 -15 4 -4 -4 7 -5 11 -15 7 -21 -4 -6 -2 -20 5 -32 8
-16 8 -20 -1 -14 -7 4 -10 2 -9 -6 3 -22 -12 -50 -24 -42 -6 3 -7 1 -3 -6 4
-6 12 -9 17 -6 5 4 9 1 9 -5 0 -6 5 -8 12 -4 7 4 8 3 4 -4 -4 -6 -13 -9 -21
-6 -11 4 -13 -1 -9 -21 3 -18 -1 -31 -11 -39 -15 -10 -14 -12 4 -12 11 0 18 4
15 7 -2 4 -1 10 4 13 4 2 8 -6 8 -19 0 -18 -3 -21 -12 -14 -8 7 -14 7 -19 -1
-3 -6 -11 -7 -17 -4 -7 5 -8 2 -3 -7 13 -20 13 -49 1 -49 -6 -1 0 -7 14 -16
l25 -14 -24 2 c-13 2 -25 -3 -27 -10 -1 -7 0 -8 3 -2 2 5 9 7 14 4 6 -3 5 -12
-3 -22 -11 -13 -10 -15 4 -9 10 3 20 1 24 -5 4 -6 3 -8 -3 -5 -6 4 -21 -2 -33
-13 -13 -11 -19 -20 -14 -20 6 0 15 5 21 11 8 8 13 7 18 -2 6 -8 4 -10 -5 -4
-10 6 -12 3 -8 -13 5 -19 4 -20 -15 -10 -20 10 -21 10 -8 -6 16 -19 21 -65 9
-72 -5 -3 -6 -10 -2 -15 4 -6 11 -5 20 2 13 10 14 8 10 -14 -2 -15 0 -30 6
-33 6 -4 8 -2 5 3 -4 6 0 16 8 23 14 12 20 7 16 -14 -1 -5 4 -4 12 2 10 9 17
9 27 -1 10 -9 11 -9 6 1 -4 6 -3 12 1 12 5 0 15 -6 23 -12 8 -7 5 -1 -8 13
-17 19 -19 26 -8 26 8 0 13 -4 11 -8 -3 -4 2 -9 10 -13 8 -3 14 0 12 6 -1 5 6
12 16 13 9 2 17 -1 17 -6 0 -6 5 -7 10 -4 6 3 10 1 10 -4 0 -14 -6 -14 -30 -1
-15 8 -17 6 -13 -11 3 -11 9 -17 12 -12 3 5 16 8 28 7 15 -1 20 3 15 14 -3 10
-1 13 7 8 6 -4 19 -2 28 6 9 7 14 8 10 2 -4 -7 3 -14 18 -16 18 -4 25 -1 25
11 0 14 2 14 10 1 6 -9 5 -20 -3 -29 -10 -12 -9 -13 3 -6 8 5 21 10 28 11 8 2
17 6 20 9 4 4 -1 5 -10 3 -9 -1 -17 2 -16 7 0 6 5 8 12 6 13 -4 38 -9 49 -10
4 -1 7 -6 7 -12 0 -8 -4 -8 -13 0 -10 8 -14 7 -14 -3 0 -10 8 -13 25 -10 21 4
23 2 14 -9 -7 -8 -9 -17 -5 -20 3 -4 12 1 20 11 13 15 13 15 3 -5 -7 -15 -16
-20 -28 -16 -11 3 -9 -2 8 -18 14 -13 20 -20 14 -16 -9 6 -13 3 -12 -10 0 -10
-3 -27 -7 -37 -6 -14 -5 -17 3 -12 8 5 10 2 6 -8 -3 -9 -10 -16 -16 -16 -5 0
-7 4 -4 9 3 5 -1 12 -10 15 -8 3 -12 10 -9 16 4 6 10 8 15 5 4 -3 11 2 14 11
4 10 2 13 -7 8 -34 -20 -37 -25 -19 -51 21 -34 23 -50 6 -57 -12 -4 -12 -2 -4
14 8 16 8 18 -4 14 -8 -3 -13 -13 -11 -22 2 -9 4 -21 4 -26 1 -5 9 -2 19 5 15
13 16 12 3 -3 -7 -10 -10 -18 -6 -18 4 0 3 -6 -2 -12 -6 -7 -9 -21 -8 -31 3
-14 -1 -16 -18 -11 -22 6 -22 6 -2 -11 11 -9 15 -14 8 -11 -6 4 -15 1 -19 -5
-4 -7 -3 -9 2 -6 6 3 16 2 24 -4 13 -7 12 -9 -2 -9 -9 0 -20 -5 -24 -12 -4 -6
-3 -8 3 -5 6 4 13 0 17 -8 3 -9 0 -15 -9 -15 -7 0 -17 -4 -20 -10 -3 -6 1 -7
9 -4 9 3 16 1 16 -5 0 -6 -5 -11 -11 -11 -5 0 -7 -5 -4 -10 4 -6 11 -8 16 -5
15 10 10 -2 -8 -16 -15 -12 -16 -12 -8 1 8 13 7 13 -8 1 -21 -17 -21 -16 4
-18 12 -1 26 -6 32 -12 7 -7 3 -8 -12 -4 -13 3 -21 1 -21 -6 0 -7 4 -10 8 -7
10 6 12 -27 2 -34 -4 -3 -11 -16 -15 -29 -5 -18 -4 -22 6 -16 8 5 11 5 7 0 -4
-4 -3 -14 3 -21 7 -8 6 -14 -2 -20 -7 -4 -9 -3 -6 3 4 6 0 16 -8 23 -12 10
-14 7 -12 -17 1 -15 6 -31 10 -34 5 -3 2 -9 -6 -12 -11 -4 -14 2 -12 24 1 17
0 27 -3 24 -9 -9 -11 -65 -3 -65 4 0 8 -7 8 -15 0 -9 -4 -11 -11 -6 -8 7 -11
-1 -12 -24 0 -26 3 -32 15 -28 10 3 12 1 6 -4 -5 -4 -12 -19 -13 -32 -3 -20 0
-23 15 -17 14 6 15 5 6 -5 -9 -9 -16 -9 -25 -1 -11 8 -14 7 -15 -9 -1 -11 2
-17 8 -14 5 4 9 1 9 -4 0 -6 -4 -11 -10 -11 -5 0 -10 -5 -10 -11 0 -5 5 -7 11
-3 7 4 10 1 7 -7 -3 -8 -10 -13 -16 -12 -5 1 -8 -7 -5 -18 5 -16 8 -18 14 -7
6 9 9 9 9 1 0 -6 -5 -15 -11 -19 -8 -4 -7 -9 2 -15 8 -5 9 -9 4 -9 -6 0 -11
-9 -12 -20 -1 -13 2 -18 10 -14 7 4 9 3 4 -1 -10 -11 -47 -14 -47 -4 0 4 8 13
18 18 15 9 15 10 1 11 -20 0 -33 -28 -20 -44 4 -6 7 -20 5 -30 -1 -11 2 -28 8
-39 8 -15 7 -18 -3 -12 -9 6 -11 3 -6 -9 4 -11 3 -15 -4 -11 -6 4 -9 -1 -7
-11 2 -16 -4 -19 -33 -19 -25 0 -35 -4 -32 -12 3 -7 8 -11 12 -8 4 2 8 -2 8
-10 0 -12 -3 -12 -15 -3 -18 16 -40 19 -48 7 -3 -5 -10 -9 -17 -9 -6 0 -2 6 8
14 11 8 22 13 26 11 3 -2 6 2 6 10 0 11 -4 12 -14 4 -7 -6 -19 -9 -28 -6 -8 4
-17 1 -21 -5 -5 -7 -2 -8 6 -3 8 5 11 4 6 -3 -9 -15 -38 -3 -29 12 3 6 3 8 -2
4 -4 -4 -14 0 -22 10 -13 15 -13 15 -4 -5 15 -29 14 -33 -4 -27 -8 4 -12 11
-8 18 4 6 -1 5 -10 -3 -21 -17 -87 -23 -87 -9 0 6 7 8 15 5 8 -4 17 -2 20 3 4
6 11 10 16 10 6 0 7 -4 4 -10 -9 -14 1 -12 13 3 8 10 6 13 -8 14 -11 1 -22 -3
-26 -8 -3 -6 -12 -3 -21 8 -8 10 -12 13 -9 6 9 -17 -13 -27 -29 -13 -11 9 -15
9 -15 1 0 -6 -10 -11 -21 -11 -12 0 -28 -8 -36 -17 -8 -10 -11 -12 -7 -4 5 9
3 12 -4 7 -7 -4 -12 -14 -12 -22 0 -9 5 -12 12 -8 7 4 8 3 4 -5 -4 -6 -14 -10
-21 -9 -8 2 -14 -1 -15 -6 0 -6 7 -11 16 -12 9 -1 19 -6 22 -10 4 -4 -1 -4
-11 -1 -15 6 -16 2 -12 -26 4 -22 2 -28 -4 -17 -5 8 -8 17 -5 21 2 4 -1 11 -7
15 -8 5 -9 3 -4 -6 6 -10 3 -12 -11 -7 -18 7 -18 7 0 -8 11 -8 17 -15 13 -15
-4 0 -3 -8 2 -18 7 -13 7 -22 0 -29 -14 -14 -18 -46 -8 -59 5 -7 3 -11 -6 -11
-8 0 -11 5 -8 10 3 6 1 7 -5 3 -8 -5 -8 -15 -2 -32 12 -31 12 -37 2 -30 -5 3
-9 -1 -9 -9 0 -8 4 -12 9 -9 4 3 5 -2 2 -10 -3 -9 -10 -14 -14 -11 -5 3 -12 0
-16 -6 -4 -7 -3 -9 2 -6 6 3 16 2 24 -4 12 -7 11 -9 -5 -10 -11 -1 -23 -1 -27
0 -13 2 -9 -6 9 -20 9 -8 14 -9 10 -3 -3 6 0 11 8 11 11 0 12 -4 4 -13 -7 -8
-6 -14 3 -18 7 -3 3 -3 -9 0 -13 3 -23 1 -23 -5 0 -6 8 -11 18 -12 10 0 12 -3
4 -6 -15 -6 -16 -33 0 -33 6 0 8 -3 4 -7 -4 -5 -14 1 -23 12 -15 19 -15 19 -8
-5 7 -23 7 -24 -11 -10 -17 14 -18 14 -6 -2 8 -9 20 -14 28 -11 8 3 14 1 14
-4 0 -17 -12 -23 -29 -13 -14 7 -17 3 -17 -25 0 -27 3 -32 13 -23 9 7 13 7 13
-1 0 -7 212 -11 749 -11 676 0 749 1 755 16 10 25 7 27 -11 13 -16 -13 -17
-12 -4 4 11 13 17 15 28 6 11 -10 12 -9 7 5 -3 9 -10 16 -16 16 -5 0 -6 5 -3
10 4 6 10 8 15 5 5 -3 11 -1 15 4 3 6 -3 8 -15 6 -11 -2 -20 0 -20 6 0 5 6 9
13 9 9 0 12 22 11 79 0 54 3 78 10 73 18 -11 36 -11 43 0 3 6 2 8 -4 5 -5 -3
-20 1 -32 9 -17 12 -19 19 -11 29 6 8 19 11 28 9 15 -5 15 -4 2 8 -18 16 -23
58 -5 52 6 -3 12 2 12 10 0 8 -4 13 -9 10 -4 -3 -8 0 -8 5 0 6 7 11 15 11 8 0
15 5 15 11 0 5 -4 7 -10 4 -5 -3 -10 -2 -10 4 0 5 6 12 13 14 8 4 8 6 -2 6
-11 1 -10 5 5 16 18 15 18 15 0 8 -13 -4 -17 -3 -12 5 4 7 2 12 -6 12 -10 0
-10 2 0 9 8 4 13 11 13 15 -1 3 -1 7 0 9 6 19 5 36 -1 32 -5 -3 -10 1 -12 7
-3 7 -13 13 -24 13 -11 0 -18 6 -16 14 2 11 0 12 -11 3 -8 -7 -17 -8 -22 -4
-4 4 -2 -3 4 -16 11 -21 11 -22 -8 -10 -11 6 -17 16 -14 22 3 5 1 6 -6 2 -6
-4 -8 -12 -5 -18 5 -8 1 -9 -11 -5 -9 4 -23 3 -29 -2 -16 -12 -71 -8 -71 6 0
6 -4 15 -9 20 -5 5 -6 3 -2 -4 11 -19 -5 -16 -21 4 -8 12 -12 13 -11 4 2 -7
-3 -16 -11 -19 -9 -3 -11 0 -6 8 6 9 4 11 -4 6 -9 -6 -8 -12 4 -26 12 -14 13
-20 4 -26 -8 -5 -10 -3 -4 6 6 10 4 12 -8 7 -9 -3 -16 -3 -16 1 3 18 -2 30
-14 35 -8 3 -14 -1 -14 -9 0 -7 5 -10 11 -7 6 4 5 -1 -3 -10 -15 -18 -26 -23
-16 -7 3 6 2 10 -4 10 -6 0 -8 8 -5 18 3 9 -2 6 -10 -8 l-16 -25 5 35 c4 24 2
31 -4 20 -5 -8 -7 -18 -4 -23 3 -5 -4 -4 -16 2 -24 13 -28 23 -6 15 8 -4 15
-1 15 5 0 6 -7 11 -15 11 -8 0 -15 5 -15 11 0 6 9 8 23 4 22 -7 22 -7 2 8 -11
8 -24 13 -28 10 -5 -3 -2 6 7 19 9 14 13 28 9 33 -5 4 -2 5 5 1 6 -4 12 -2 12
3 0 6 -8 12 -17 12 -10 1 -4 5 12 9 23 6 25 8 8 9 -12 0 -24 5 -27 10 -4 5 4
7 16 4 22 -4 22 -4 5 10 -10 8 -13 17 -8 18 6 2 12 14 14 27 2 13 10 27 17 32
15 9 23 40 10 40 -4 0 -11 7 -14 16 -6 15 -4 15 11 3 15 -13 15 -12 6 6 -9 15
-8 22 5 32 15 12 15 12 -2 6 -13 -4 -17 -3 -12 5 4 7 2 12 -4 12 -7 0 -5 7 4
16 19 19 21 55 4 74 -7 8 -3 6 10 -5 22 -18 23 -18 16 0 -5 11 -4 16 3 12 5
-3 10 0 10 8 0 11 -4 12 -13 4 -8 -7 -14 -6 -20 2 -5 8 -3 9 6 4 10 -6 12 -4
7 9 -5 11 -3 15 5 10 8 -5 9 -2 5 9 -4 10 -1 17 6 17 8 0 7 4 -3 11 -12 8 -10
10 10 5 22 -4 23 -4 8 8 -23 17 -23 27 0 20 16 -5 16 -5 0 6 -10 6 -18 16 -18
22 0 7 6 6 15 -2 9 -7 18 -10 22 -6 3 3 1 6 -6 6 -8 0 -11 7 -7 15 3 8 -2 19
-12 24 -16 10 -15 10 2 11 15 0 16 3 6 15 -7 8 -17 12 -23 8 -6 -3 -7 -1 -3 6
6 9 11 9 21 1 11 -9 14 -7 12 9 -1 12 -6 21 -12 22 -5 0 -1 4 10 9 11 5 14 9
7 9 -7 1 -10 6 -7 11 4 6 11 7 17 4 7 -4 8 -2 4 5 -4 6 -11 9 -16 6 -5 -3 -12
0 -16 6 -4 8 -3 9 4 5 7 -4 12 -2 12 4 0 6 6 8 13 4 6 -4 9 -4 5 1 -4 4 -3 14
3 22 9 10 8 13 -5 13 -10 0 -14 -4 -11 -10 3 -5 1 -10 -4 -10 -20 0 -11 22 11
28 20 5 20 6 3 12 -16 6 -16 8 -3 20 13 13 13 17 -4 34 -16 17 -16 21 -3 36
10 11 11 20 5 26 -7 7 -6 11 4 11 8 0 13 -8 11 -19 -2 -10 0 -16 6 -13 5 4 9
1 9 -5 0 -6 5 -8 11 -4 8 4 7 9 -2 14 -7 5 -14 18 -16 30 -2 12 1 19 7 15 6
-3 7 1 4 9 -3 9 -10 14 -14 11 -5 -3 -12 -1 -15 5 -4 6 -3 10 2 9 20 -3 25 2
13 16 -7 9 -10 18 -6 22 3 3 6 1 6 -6 0 -7 5 -9 12 -5 7 5 8 2 3 -7 -5 -8 -4
-11 1 -6 5 5 10 13 10 18 1 5 2 10 4 12 1 1 3 12 4 24 2 16 -1 20 -9 13 -7 -6
-11 -2 -10 15 0 13 3 26 7 30 4 4 4 13 2 20 -3 7 -1 16 5 20 6 3 9 0 5 -8 -3
-8 0 -18 7 -23 8 -4 10 -3 5 5 -4 6 -2 19 5 27 7 8 8 14 3 13 -5 -1 -18 0 -29
1 -16 1 -15 3 8 12 28 10 34 22 17 33 -6 4 -9 1 -8 -6 2 -6 -4 -14 -12 -16
-12 -4 -12 -3 -2 5 17 11 17 22 2 32 -8 5 -7 9 5 13 9 4 14 3 10 -2 -6 -11 21
-8 32 3 4 4 3 6 -2 5 -6 -2 -20 3 -33 10 -22 12 -22 14 -8 30 9 10 13 21 9 26
-5 4 3 2 16 -5 19 -10 22 -10 16 1 -6 9 -3 10 11 5 10 -4 3 7 -16 23 -19 17
-29 30 -22 31 6 0 12 -4 12 -10 0 -16 27 -11 34 6 10 25 7 29 -7 10 -13 -17
-14 -18 -20 -2 -4 9 -3 15 1 13 4 -3 13 1 20 9 7 8 8 14 3 14 -5 0 -8 9 -6 20
2 11 0 18 -5 15 -5 -3 -12 0 -16 6 -4 7 -3 9 4 5 12 -7 27 11 27 34 0 8 4 21
9 29 6 9 5 12 0 8 -6 -3 -16 -2 -24 4 -12 7 -11 9 5 9 11 0 15 4 10 8 -6 4
-11 19 -11 35 -1 23 2 27 20 22 11 -4 17 -3 11 2 -14 11 -19 47 -6 38 6 -3 11
-1 11 4 0 6 -4 11 -10 11 -5 0 -10 5 -10 11 0 5 5 7 10 4 15 -9 12 4 -4 21
-13 12 -96 14 -550 14 -314 0 -536 -4 -536 -10z m14 -182 c-3 -4 -9 -8 -15 -8
-5 0 -9 4 -9 8 0 5 7 9 15 9 8 0 12 -4 9 -9z m1053 -31 c0 -8 -6 -14 -14 -14
-9 0 -10 4 -2 14 6 7 12 13 14 13 1 0 2 -6 2 -13z m-1067 -27 c0 -5 -2 -10 -4
-10 -3 0 -8 5 -11 10 -3 6 -1 10 4 10 6 0 11 -4 11 -10z m-16 -86 c3 -8 2 -12
-4 -9 -13 8 -13 -8 0 -21 7 -7 6 -11 -3 -11 -8 0 -13 12 -13 29 0 30 10 37 20
12z m47 -261 c15 -15 -8 -12 -36 5 -19 11 -19 12 3 9 12 -2 27 -8 33 -14z
m979 -67 c0 -3 -4 -8 -10 -11 -5 -3 -10 -1 -10 4 0 6 5 11 10 11 6 0 10 -2 10
-4z m-750 -660 c0 -3 -4 -8 -10 -11 -5 -3 -10 -1 -10 4 0 6 5 11 10 11 6 0 10
-2 10 -4z m624 -134 c3 -5 -1 -9 -9 -9 -8 0 -12 4 -9 9 3 4 7 8 9 8 2 0 6 -4
9 -8z m-657 -168 c-3 -3 -12 -4 -19 -1 -8 3 -5 6 6 6 11 1 17 -2 13 -5z m-2
-24 c3 -6 -1 -7 -9 -4 -18 7 -21 14 -7 14 6 0 13 -4 16 -10z m993 -97 c4 3 13
-2 19 -12 9 -14 8 -18 -3 -18 -7 0 -11 4 -8 9 3 4 -4 8 -14 8 -11 0 -23 7 -26
16 -5 14 -4 15 8 5 8 -7 19 -10 24 -8z m-1352 -17 c2 -13 1 -13 -3 -1 -2 8 -9
13 -14 10 -5 -4 -9 -1 -9 5 0 18 25 5 26 -14z m994 14 c0 -5 -2 -10 -4 -10 -3
0 -8 5 -11 10 -3 6 -1 10 4 10 6 0 11 -4 11 -10z m151 -7 c13 -15 12 -15 -8
-4 -24 12 -29 21 -14 21 5 0 15 -7 22 -17z m-1031 -9 c0 -8 -19 -13 -24 -6 -3
5 1 9 9 9 8 0 15 -2 15 -3z m1145 -4 c3 -6 -1 -7 -9 -4 -18 7 -21 14 -7 14 6
0 13 -4 16 -10z m-1428 -506 c0 -9 -4 -11 -12 -4 -7 5 -14 8 -17 5 -2 -3 -5 1
-5 9 0 7 7 11 17 9 9 -2 17 -11 17 -19z"/>
<path d="M1576 2441 c-4 -5 -1 -13 5 -17 8 -5 4 -13 -12 -26 -23 -19 -23 -19
-1 -8 19 9 22 8 22 -10 0 -12 -4 -19 -8 -16 -5 3 -9 -1 -9 -9 0 -8 4 -12 9 -9
4 3 7 -6 6 -20 -1 -13 -5 -23 -9 -21 -3 3 -6 -9 -7 -26 0 -17 -7 -38 -14 -47
-11 -13 -11 -15 5 -9 9 3 17 2 17 -3 0 -6 -6 -10 -14 -10 -8 0 -18 -4 -21 -10
-3 -5 0 -7 8 -4 8 3 18 -1 23 -8 4 -7 4 -10 -1 -6 -4 4 -14 3 -22 -3 -17 -15
-18 -43 0 -33 6 4 9 4 5 -1 -4 -4 -2 -15 5 -23 10 -13 9 -14 -3 -7 -8 5 -22
10 -30 12 -12 1 -11 -1 3 -11 16 -13 25 -32 10 -23 -5 3 -9 -15 -11 -40 -1
-25 2 -42 7 -39 5 4 8 -2 7 -11 -2 -9 -9 -19 -17 -21 -11 -3 -12 -2 -1 6 11 8
11 10 -1 15 -8 3 -14 0 -13 -6 3 -21 17 -38 27 -32 5 4 9 2 9 -4 0 -5 -9 -12
-19 -16 -23 -7 -34 -32 -19 -41 7 -5 8 -2 3 6 -5 9 -4 11 4 6 6 -4 9 -11 6
-16 -3 -4 1 -11 7 -13 10 -4 10 -6 0 -6 -7 -1 -10 -6 -6 -13 4 -7 3 -8 -5 -4
-6 4 -9 11 -6 16 3 4 -2 10 -10 13 -12 5 -12 2 -3 -18 12 -26 23 -31 33 -15 8
12 35 1 35 -14 0 -7 6 -13 14 -13 12 0 12 4 -1 26 -12 21 -12 22 -1 9 8 -10
18 -15 21 -11 4 3 7 -2 8 -13 1 -15 3 -13 9 6 l8 25 2 -25 1 -25 11 23 c12 24
23 28 33 12 4 -6 12 -7 18 -3 17 10 47 11 41 1 -3 -4 5 -8 17 -8 19 0 20 2 8
18 -13 16 -13 16 7 0 16 -14 23 -15 34 -5 10 9 11 9 6 0 -4 -7 -2 -13 4 -13 6
0 8 -5 5 -10 -4 -6 10 -1 30 10 26 15 41 18 49 10 7 -5 16 -7 20 -3 11 12 36
12 36 0 0 -5 3 -7 6 -4 4 3 15 2 25 -3 11 -6 20 -6 23 -1 4 5 0 12 -6 14 -9 4
-10 6 -1 6 6 1 15 -4 18 -9 5 -8 12 -7 23 2 12 10 14 10 8 1 -4 -8 -2 -13 4
-13 6 0 8 -5 4 -12 -4 -7 -3 -8 5 -4 6 4 9 11 6 16 -3 5 0 12 6 16 8 4 9 3 5
-4 -4 -7 -2 -12 5 -12 9 0 9 -3 0 -14 -9 -11 -9 -16 0 -22 7 -4 9 -3 5 4 -3 6
-2 13 4 17 6 4 8 10 5 15 -3 5 0 12 6 16 8 4 9 3 5 -4 -4 -7 -2 -12 4 -12 7 0
9 -7 6 -16 -3 -9 -2 -12 5 -9 6 4 8 13 5 20 -3 8 2 19 10 26 8 7 14 8 13 3 -4
-21 2 -26 18 -13 9 8 14 9 10 3 -4 -7 0 -14 8 -18 8 -3 14 0 12 6 -1 5 6 12
16 13 9 2 17 -1 17 -6 0 -6 5 -7 10 -4 6 3 10 1 10 -4 0 -14 -6 -14 -30 -1
-15 8 -17 6 -13 -11 3 -11 9 -17 12 -12 3 5 16 8 28 7 12 -1 19 4 17 10 -3 7
5 12 20 12 15 0 22 -5 19 -12 -3 -8 2 -11 16 -7 19 5 26 15 22 36 -1 4 8 3 19
-3 25 -13 26 -7 3 16 -16 16 -16 17 -1 12 10 -4 19 -1 22 8 9 24 7 30 -5 14
-9 -13 -10 -12 -5 3 3 9 9 24 12 32 4 9 1 15 -7 16 -8 0 0 7 16 15 l30 15 -30
-6 c-16 -3 -25 -2 -19 2 6 4 10 18 9 30 -1 12 1 20 5 18 4 -2 16 3 26 11 10 9
13 13 7 9 -7 -3 -13 -2 -13 4 0 6 -8 8 -17 5 -17 -5 -17 -5 0 6 9 6 21 9 25 6
5 -3 8 9 7 27 0 21 -5 31 -14 29 -7 -1 -10 2 -6 8 3 6 11 8 16 5 5 -4 9 -1 9
4 0 6 -5 11 -11 11 -5 0 -8 4 -4 10 3 5 13 6 22 3 15 -6 16 -5 3 9 -12 12 -18
13 -30 4 -13 -9 -13 -9 -3 5 7 9 9 19 5 24 -4 4 4 4 18 1 17 -5 21 -4 11 2 -7
5 -11 16 -9 23 3 8 2 26 -3 41 -6 21 -4 26 7 21 10 -4 12 0 8 11 -3 9 -11 13
-18 9 -6 -3 -3 3 7 14 18 21 18 21 0 26 -16 4 -16 5 -1 6 11 1 15 7 12 15 -3
8 3 19 14 25 14 7 19 7 19 -4 0 -7 -6 -11 -14 -8 -7 3 -13 1 -13 -4 0 -5 9 -9
20 -10 15 -1 19 3 16 20 -3 12 -5 27 -5 32 -1 6 -6 3 -11 -5 -6 -10 -10 -11
-10 -2 0 16 -849 18 -851 2 -1 -5 -2 -14 -3 -19 0 -5 -4 -13 -8 -17 -4 -3 -6
3 -3 14 4 23 -10 39 -19 23z m845 -24 c-10 -9 -11 -8 -5 6 3 10 9 15 12 12 3
-3 0 -11 -7 -18z m-811 -182 c0 -12 -19 -12 -23 0 -4 9 -1 12 9 8 7 -3 14 -7
14 -8z m-50 -189 c0 -3 -4 -8 -10 -11 -5 -3 -10 -1 -10 4 0 6 5 11 10 11 6 0
10 -2 10 -4z m290 -180 c0 -2 -7 -7 -16 -10 -8 -3 -12 -2 -9 4 6 10 25 14 25
6z"/>
<path d="M2459 2385 c-1 -3 -2 -8 -3 -12 -1 -5 -5 -13 -9 -19 -4 -7 1 -18 11
-25 15 -13 16 -12 3 4 -14 18 -3 24 17 7 9 -7 9 -7 2 2 -14 17 -12 31 3 22 8
-5 8 -2 -2 9 -14 17 -20 21 -22 12z"/>
<path d="M186 2314 c-8 -22 -8 -24 6 -24 6 0 8 3 5 7 -4 3 -2 12 4 20 7 8 8
13 1 13 -5 0 -13 -7 -16 -16z"/>
<path d="M1420 2321 c0 -10 19 -25 25 -20 1 2 -3 10 -11 17 -8 7 -14 8 -14 3z"/>
<path d="M75 2280 c-2 -4 1 -7 8 -8 7 0 21 -2 32 -5 11 -2 14 -2 7 0 -7 3 -10
8 -8 12 3 4 -4 7 -15 7 -11 0 -22 -3 -24 -6z"/>
<path d="M1370 2026 c-15 -19 11 -28 27 -11 9 10 9 14 -2 19 -7 2 -18 -1 -25
-8z"/>
<path d="M2406 2027 c3 -10 9 -15 12 -12 3 3 0 11 -7 18 -10 9 -11 8 -5 -6z"/>
<path d="M2397 1969 c7 -7 15 -10 18 -7 3 3 -2 9 -12 12 -14 6 -15 5 -6 -5z"/>
<path d="M1507 1959 c7 -7 15 -10 18 -7 3 3 -2 9 -12 12 -14 6 -15 5 -6 -5z"/>
<path d="M2396 1938 c3 -5 10 -6 15 -3 13 9 11 12 -6 12 -8 0 -12 -4 -9 -9z"/>
<path d="M260 1906 c0 -2 8 -10 18 -17 15 -13 16 -12 3 4 -13 16 -21 21 -21
13z"/>
<path d="M2395 1899 c-4 -6 -5 -12 -2 -15 2 -3 7 2 10 11 7 17 1 20 -8 4z"/>
<path d="M1655 1849 c-5 -7 -4 -10 3 -5 5 3 12 0 15 -6 3 -10 7 -10 20 1 16
13 22 8 17 -14 -1 -5 4 -4 12 3 11 11 10 14 -2 22 -8 5 -19 5 -25 0 -7 -6 -16
-5 -22 1 -8 8 -13 7 -18 -2z"/>
<path d="M1867 1854 c-13 -14 -7 -26 7 -15 10 8 16 9 19 1 3 -6 4 -5 3 2 -3
14 -20 21 -29 12z"/>
<path d="M1914 1849 c-3 -6 1 -17 10 -25 9 -8 11 -9 6 -2 -16 20 -11 29 9 18
25 -13 31 -13 31 2 0 6 -3 8 -6 5 -4 -3 -15 -2 -25 3 -12 7 -20 6 -25 -1z"/>
<path d="M2140 1840 c6 -11 13 -20 16 -20 2 0 0 9 -6 20 -6 11 -13 20 -16 20
-2 0 0 -9 6 -20z"/>
<path d="M2353 1845 c0 -8 4 -12 9 -9 5 3 6 10 3 15 -9 13 -12 11 -12 -6z"/>
<path d="M530 1840 c0 -5 5 -10 11 -10 5 0 7 5 4 10 -3 6 -8 10 -11 10 -2 0
-4 -4 -4 -10z"/>
<path d="M1350 1840 c0 -5 5 -10 10 -10 6 0 10 5 10 10 0 6 -4 10 -10 10 -5 0
-10 -4 -10 -10z"/>
<path d="M1765 1839 c-3 -4 2 -6 10 -5 21 3 28 13 10 13 -9 0 -18 -4 -20 -8z"/>
<path d="M2010 1838 c0 -4 4 -8 9 -8 6 0 12 4 15 8 3 5 -1 9 -9 9 -8 0 -15 -4
-15 -9z"/>
<path d="M2160 1846 c0 -2 8 -10 18 -17 15 -13 16 -12 3 4 -13 16 -21 21 -21
13z"/>
<path d="M1354 1729 c-3 -6 -2 -15 3 -20 5 -5 9 -1 9 11 0 23 -2 24 -12 9z"/>
<path d="M1306 1632 c-3 -6 1 -15 8 -21 8 -7 17 -8 20 -3 3 6 -1 15 -8 21 -8
7 -17 8 -20 3z"/>
<path d="M1538 1619 c18 -19 15 -24 -15 -38 -24 -10 -26 -10 -10 2 9 8 17 18
17 22 0 4 -7 2 -16 -6 -13 -10 -17 -10 -25 2 -6 10 -8 4 -4 -18 3 -19 0 -35
-7 -39 -7 -4 -8 -3 -4 4 4 7 2 20 -4 29 -11 17 -11 17 -6 1 7 -22 -3 -50 -15
-42 -5 3 -6 -3 -2 -12 5 -13 3 -15 -8 -9 -12 7 -12 6 -1 -7 10 -13 10 -17 0
-21 -10 -4 -10 -6 0 -6 6 -1 12 -8 12 -17 0 -8 5 -12 11 -9 6 4 5 -2 -2 -13
-7 -12 -17 -18 -21 -16 -4 3 -8 0 -8 -5 0 -6 5 -11 12 -11 6 0 3 -6 -7 -14
-11 -8 -24 -12 -30 -8 -5 3 -4 -2 3 -10 8 -9 21 -14 30 -12 15 5 15 4 -1 -6
-11 -7 -16 -20 -13 -35 3 -14 0 -27 -5 -30 -5 -4 -9 -11 -9 -17 0 -6 7 -5 18
3 15 12 16 12 5 -2 -7 -9 -9 -20 -5 -24 4 -5 -1 -5 -10 -2 -12 4 -15 2 -11
-10 3 -8 0 -19 -8 -25 -11 -8 -10 -9 4 -4 15 5 17 2 12 -15 -5 -16 -4 -19 5
-14 9 5 11 4 6 -3 -4 -7 -14 -12 -22 -12 -17 0 -19 -16 -2 -26 7 -5 8 -3 3 6
-5 8 -4 11 3 6 13 -8 5 -36 -12 -36 -8 0 -8 -2 0 -8 16 -10 34 -48 27 -56 -10
-10 -45 -7 -38 4 3 5 12 7 20 3 11 -3 13 -1 9 10 -6 17 -33 31 -42 22 -3 -3 0
-5 6 -5 7 0 12 -5 12 -11 0 -5 -4 -8 -9 -4 -13 7 -6 -29 9 -52 10 -15 11 -16
6 -1 -4 13 0 16 16 13 11 -3 30 0 42 6 17 8 16 6 -4 -10 -18 -14 -27 -16 -32
-8 -4 7 -8 8 -8 2 0 -5 5 -17 10 -25 5 -8 10 -10 10 -4 0 6 12 16 27 23 24 11
25 11 12 -5 -10 -13 -10 -16 -1 -10 7 4 20 2 29 -6 14 -11 16 -11 8 2 -19 30
-14 45 6 20 12 -15 19 -18 16 -8 -3 9 1 19 9 22 8 3 13 2 10 -3 -3 -4 1 -17 9
-27 14 -18 14 -18 10 4 -2 12 0 20 5 17 5 -3 11 3 14 12 3 10 4 6 2 -9 -2 -19
1 -25 11 -21 7 3 13 -1 13 -8 0 -7 3 -9 6 -6 4 4 1 14 -6 22 -11 13 -11 16 1
13 8 -2 20 -12 27 -23 13 -19 13 -19 9 3 -4 17 -1 22 11 20 10 -2 16 2 15 9
-2 7 4 10 12 7 12 -5 10 -10 -8 -26 -12 -11 -16 -17 -9 -13 7 4 21 1 30 -7 15
-12 16 -11 3 5 -14 18 -15 17 29 21 8 1 21 -7 28 -19 13 -20 13 -20 9 3 -3 12
-2 20 2 17 5 -2 17 2 27 10 16 12 21 11 37 -3 17 -15 17 -15 11 3 -5 12 -4 16
4 11 8 -4 10 -2 6 7 -3 8 -1 18 5 21 5 4 8 18 5 32 -3 18 -1 23 7 18 8 -5 9
-3 5 5 -5 7 0 19 10 27 18 14 18 14 -3 4 -13 -6 -23 -15 -23 -21 0 -6 -5 -7
-11 -3 -8 4 -7 9 2 15 12 8 11 11 -1 20 -12 8 -11 9 7 4 12 -3 25 -1 29 6 5 8
3 9 -6 4 -8 -5 -11 -3 -8 6 3 8 10 13 16 12 6 -2 9 4 6 12 -4 8 -10 15 -16 15
-5 0 -6 -4 -3 -10 4 -6 -1 -7 -11 -3 -15 5 -15 7 0 15 9 5 16 17 16 26 0 13
-2 14 -9 3 -6 -9 -11 -10 -15 -2 -4 6 -2 11 4 11 6 0 8 6 5 13 -4 6 5 -1 20
-18 l27 -30 -15 30 c-11 23 -13 36 -5 50 9 17 8 18 -3 8 -7 -7 -17 -13 -23
-13 -5 0 1 8 12 19 24 20 20 33 -6 24 -16 -5 -16 -5 -1 8 10 8 20 25 24 39 7
23 7 24 -10 10 -18 -14 -18 -14 -2 11 10 14 14 29 10 34 -5 4 -3 5 3 2 16 -9
27 24 14 37 -8 8 -9 6 -5 -6 4 -11 2 -18 -5 -18 -6 0 -9 4 -6 9 4 5 2 11 -4
13 -6 2 -1 9 11 16 17 11 20 11 13 0 -6 -10 -4 -10 9 1 18 14 23 26 8 16 -6
-3 -15 3 -20 14 -9 15 -6 22 12 35 19 15 20 15 1 7 -22 -11 -42 -10 -61 2 -8
5 -13 4 -13 -2 0 -6 -4 -11 -10 -11 -5 0 -9 6 -7 13 1 7 -7 11 -20 9 -13 -2
-23 1 -23 6 0 10 30 9 48 -2 6 -4 12 -3 12 1 0 5 -9 14 -21 21 -16 10 -19 10
-13 1 5 -9 2 -10 -9 -6 -9 3 -19 2 -22 -4 -4 -5 -11 -7 -16 -3 -5 3 -7 9 -5
13 3 4 -2 8 -10 8 -11 0 -10 -5 6 -22 19 -20 19 -22 3 -20 -10 0 -24 4 -30 8
-6 4 -15 2 -19 -4 -5 -9 -11 -7 -20 5 -11 16 -13 16 -19 -3 -6 -20 -6 -20 -27
1 l-22 22 -9 -22 c-11 -25 -24 -29 -24 -7 0 8 4 12 9 9 4 -3 8 0 8 6 0 7 -6
10 -14 7 -7 -3 -26 1 -42 9 -19 10 -25 11 -16 3z m107 -39 c3 -5 1 -10 -4 -10
-6 0 -11 5 -11 10 0 6 2 10 4 10 3 0 8 -4 11 -10z m-175 -65 c0 -8 -4 -15 -10
-15 -5 0 -7 7 -4 15 4 8 8 15 10 15 2 0 4 -7 4 -15z m10 -31 c0 -8 -19 -13
-24 -6 -3 5 1 9 9 9 8 0 15 -2 15 -3z m-20 -98 c0 -2 -9 -6 -20 -9 -11 -3 -18
-1 -14 4 5 9 34 13 34 5z m396 -278 c4 -7 4 -10 -1 -6 -4 4 -15 2 -24 -5 -14
-11 -14 -10 -2 6 16 20 18 21 27 5z m-7 -35 c-7 -10 -14 -19 -15 -21 -1 -2 -4
4 -8 13 -3 9 -2 13 4 10 6 -3 10 -1 10 4 0 6 5 11 11 11 8 0 7 -6 -2 -17z"/>
<path d="M1706 1614 c-9 -23 -7 -31 3 -15 8 13 12 13 28 1 16 -13 16 -12 -1 8
-23 26 -22 26 -30 6z"/>
<path d="M1652 1606 c7 -8 15 -12 17 -11 5 6 -10 25 -20 25 -5 0 -4 -6 3 -14z"/>
<path d="M1863 1597 c5 -15 34 -17 46 -3 7 8 1 12 -20 12 -17 1 -28 -3 -26 -9z"/>
<path d="M647 1575 c-4 -8 -1 -17 6 -21 7 -4 9 -4 5 1 -4 4 -3 14 3 22 7 8 8
13 1 13 -5 0 -12 -7 -15 -15z"/>
<path d="M1915 1550 c3 -5 8 -10 11 -10 2 0 4 5 4 10 0 6 -5 10 -11 10 -5 0
-7 -4 -4 -10z"/>
<path d="M1426 1455 c4 -8 11 -15 16 -15 6 0 5 6 -2 15 -7 8 -14 15 -16 15 -2
0 -1 -7 2 -15z"/>
<path d="M1910 1440 c-9 -6 -10 -10 -3 -10 6 0 15 5 18 10 8 12 4 12 -15 0z"/>
<path d="M1403 1319 c-2 -23 3 -25 10 -4 4 8 3 16 -1 19 -4 3 -9 -4 -9 -15z"/>
<path d="M610 1320 c0 -5 4 -10 9 -10 6 0 13 5 16 10 3 6 -1 10 -9 10 -9 0
-16 -4 -16 -10z"/>
<path d="M1252 1110 c-7 -11 -8 -20 -3 -20 9 0 24 30 18 36 -1 2 -8 -6 -15
-16z"/>
<path d="M1797 1026 c-17 -13 -16 -14 3 -19 11 -3 23 0 27 5 4 7 1 8 -7 3 -10
-6 -12 -4 -7 8 8 20 7 20 -16 3z"/>
<path d="M1727 1000 c10 -11 19 -20 21 -20 1 0 -2 9 -8 20 -6 11 -15 20 -20
20 -6 0 -2 -9 7 -20z"/>
<path d="M1245 960 c-4 -6 -11 -7 -17 -4 -7 4 -8 2 -4 -4 4 -6 2 -21 -4 -32
-7 -13 -7 -20 0 -20 5 0 10 7 10 16 0 9 5 12 12 8 7 -4 8 -3 4 5 -4 6 -2 18 4
26 7 8 10 15 7 15 -3 0 -9 -5 -12 -10z"/>
<path d="M546 929 c4 -6 0 -15 -7 -20 -10 -6 -8 -8 7 -7 23 2 28 24 7 32 -9 4
-11 1 -7 -5z"/>
<path d="M1197 807 c-3 -8 1 -14 8 -14 7 0 11 6 8 14 -3 7 -6 13 -8 13 -2 0
-5 -6 -8 -13z"/>
<path d="M507 729 c7 -7 15 -10 18 -7 3 3 -2 9 -12 12 -14 6 -15 5 -6 -5z"/>
<path d="M1411 734 c4 -21 -2 -28 -11 -14 -8 13 -10 12 -10 -2 0 -20 15 -24
26 -7 5 8 8 8 14 0 5 -9 11 -7 21 5 10 13 10 16 1 10 -7 -4 -20 -2 -28 5 -8 7
-14 8 -13 3z"/>
<path d="M1620 661 c0 -7 -4 -10 -8 -7 -5 3 -9 -1 -9 -9 0 -8 4 -15 8 -15 9 0
21 31 14 38 -3 3 -5 0 -5 -7z"/>
<path d="M60 556 c0 -2 7 -7 16 -10 8 -3 12 -2 9 4 -6 10 -25 14 -25 6z"/>
<path d="M57 513 c-10 -9 -9 -23 1 -23 5 0 9 7 9 15 0 17 -1 18 -10 8z"/>
<path d="M1580 496 c0 -2 8 -10 18 -17 15 -13 16 -12 3 4 -13 16 -21 21 -21
13z"/>
<path d="M35 440 c-3 -5 -1 -10 4 -10 6 0 11 5 11 10 0 6 -2 10 -4 10 -3 0 -8
-4 -11 -10z"/>
<path d="M1567 443 c-4 -6 0 -13 8 -17 8 -3 17 0 21 6 4 6 3 8 -4 4 -5 -3 -12
-1 -14 6 -3 8 -6 9 -11 1z"/>
<path d="M1564 356 c0 -19 6 -33 13 -33 8 0 9 6 4 16 -5 9 -6 21 -4 28 2 6 0
14 -5 17 -4 3 -8 -10 -8 -28z"/>
<path d="M1565 280 c3 -5 8 -10 11 -10 2 0 4 5 4 10 0 6 -5 10 -11 10 -5 0 -7
-4 -4 -10z"/>
</g>
</svg>
